<svg width="40.000000" height="40.000000" viewBox="0 0 40 40" fill="none" xmlns="http://www.w3.org/2000/svg" xmlns:xlink="http://www.w3.org/1999/xlink">
	<desc>
			Created with Pixso.
	</desc>
	<defs>
		<filter id="filter_8_339_dd" x="4.000000" y="8.000000" width="32.000000" height="32.000000" filterUnits="userSpaceOnUse" color-interpolation-filters="sRGB">
			<feFlood flood-opacity="0" result="BackgroundImageFix"/>
			<feColorMatrix in="SourceAlpha" type="matrix" values="0 0 0 0 0 0 0 0 0 0 0 0 0 0 0 0 0 0 127 0" result="hardAlpha"/>
			<feOffset dx="0" dy="4"/>
			<feGaussianBlur stdDeviation="1.33333"/>
			<feComposite in2="hardAlpha" operator="out" k2="-1" k3="1"/>
			<feColorMatrix type="matrix" values="0 0 0 0 0 0 0 0 0 0 0 0 0 0 0 0 0 0 0.25 0"/>
			<feBlend mode="normal" in2="BackgroundImageFix" result="effect_dropShadow_1"/>
			<feBlend mode="normal" in="SourceGraphic" in2="effect_dropShadow_1" result="shape"/>
		</filter>
		<clipPath id="clip2_2207">
			<rect id="icon-user" rx="0.000000" width="23.000000" height="23.000000" transform="translate(8.500000 8.500000)" fill="white" fill-opacity="0"/>
		</clipPath>
	</defs>
	<g filter="url(#filter_8_339_dd)">
		<rect id="icon-user" rx="0.000000" width="23.000000" height="23.000000" transform="translate(8.500000 8.500000)" fill="#FFFFFF" fill-opacity="0"/>
		<g clip-path="url(#clip2_2207)">
			<path id="Shape" d="M15 15C15 12.23 17.23 10 20 10C22.76 10 25 12.23 25 15C25 17.76 22.76 20 20 20C17.23 20 15 17.76 15 15ZM20 12C18.34 12 17 13.34 17 15C17 16.65 18.34 18 20 18C21.65 18 23 16.65 23 15C23 13.34 21.65 12 20 12ZM12.46 23.46C13.4 22.52 14.67 22 16 22L24 22C25.32 22 26.59 22.52 27.53 23.46C28.47 24.4 29 25.67 29 27L29 29C29 29.55 28.55 30 28 30C27.44 30 27 29.55 27 29L27 27C27 26.2 26.68 25.44 26.12 24.87C25.55 24.31 24.79 24 24 24L16 24C15.2 24 14.44 24.31 13.87 24.87C13.31 25.44 13 26.2 13 27L13 29C13 29.55 12.55 30 12 30C11.44 30 11 29.55 11 29L11 27C11 25.67 11.52 24.4 12.46 23.46Z" fill="#FFFFFF" fill-opacity="1.000000" fill-rule="evenodd"/>
		</g>
	</g>
</svg>
