<svg width="40.000000" height="40.000000" viewBox="0 0 40 40" fill="none" xmlns="http://www.w3.org/2000/svg" xmlns:xlink="http://www.w3.org/1999/xlink">
	<desc>
			Created with Pixso.
	</desc>
	<defs>
		<clipPath id="clip2_1925">
			<rect id="icon-mail" rx="0.000000" width="23.000000" height="23.000000" transform="translate(8.500000 8.500000)" fill="white" fill-opacity="0"/>
		</clipPath>
	</defs>
	<rect id="icon-mail" rx="0.000000" width="23.000000" height="23.000000" transform="translate(8.500000 8.500000)" fill="#FFFFFF" fill-opacity="0"/>
	<g clip-path="url(#clip2_1925)">
		<path id="Shape" d="M9 13.98C8.99 13.99 8.99 14 9 14.01L9 26C9 27.65 10.34 29 12 29L28 29C29.65 29 31 27.65 31 26L31 14.01C31 14 31 13.99 31 13.98C30.99 12.33 29.64 11 28 11L12 11C10.35 11 9 12.33 9 13.98ZM11.1 13.55C11.27 13.22 11.61 13 12 13L28 13C28.38 13 28.72 13.22 28.89 13.55L20 19.77L11.1 13.55ZM29 15.92L29 26C29 26.54 28.54 27 28 27L12 27C11.45 27 11 26.54 11 26L11 15.92L19.42 21.81C19.77 22.06 20.22 22.06 20.57 21.81L29 15.92Z" fill="#FFFFFF" fill-opacity="1.000000" fill-rule="evenodd"/>
	</g>
</svg>
