<svg width="64.000000" height="64.000000" viewBox="0 0 64 64" fill="none" xmlns="http://www.w3.org/2000/svg" xmlns:xlink="http://www.w3.org/1999/xlink">
	<desc>
			Created with Pixso.
	</desc>
	<defs>
		<clipPath id="clip49_7842">
			<rect id="html5" rx="0.000000" width="63.000000" height="63.000000" transform="translate(0.500000 0.500000)" fill="white" fill-opacity="0"/>
		</clipPath>
	</defs>
	<rect id="html5" rx="0.000000" width="63.000000" height="63.000000" transform="translate(0.500000 0.500000)" fill="#FFFFFF" fill-opacity="0"/>
	<g clip-path="url(#clip49_7842)">
		<path id="Vector" d="M10.43 8L10.62 10.18L14.12 49.75L14.25 51.12L15.56 51.5L31.43 55.93L31.93 56.06L32.5 55.93L48.37 51.56L49.68 51.18L49.81 49.81L53.37 10.18L53.56 8.06L51.37 8.06L12.62 8L10.43 8ZM14.81 12L49.18 12.06L45.93 48.06L32 51.93L18 48.06L14.81 12ZM19.62 18L20.93 32.93L38.06 32.93L37.5 39.37L32 40.87L31.93 40.87L26.43 39.37L26.12 35.25L21.12 35.25L21.81 43.18L31.93 46L32 46L42.12 43.18L43.5 28L25.43 28L25 22.93L43.93 22.93L44.37 18L19.62 18Z" fill="#000000" fill-opacity="1.000000" fill-rule="nonzero"/>
	</g>
</svg>
