<svg width="24.000000" height="24.000000" viewBox="0 0 24 24" fill="none" xmlns="http://www.w3.org/2000/svg" xmlns:xlink="http://www.w3.org/1999/xlink">
	<desc>
			Created with Pixso.
	</desc>
	<defs>
		<clipPath id="clip2_1961">
			<rect id="icon-code" rx="0.000000" width="23.000000" height="23.000000" transform="translate(0.500000 0.500000)" fill="white" fill-opacity="0"/>
		</clipPath>
	</defs>
	<rect id="icon-code" rx="0.000000" width="23.000000" height="23.000000" transform="translate(0.500000 0.500000)" fill="#FFFFFF" fill-opacity="0"/>
	<g clip-path="url(#clip2_1961)">
		<path id="Shape" d="M8.7 5.29C9.09 5.68 9.09 6.31 8.7 6.7L3.41 12L8.7 17.29C9.09 17.68 9.09 18.31 8.7 18.7C8.31 19.09 7.68 19.09 7.29 18.7L1.29 12.7C0.9 12.31 0.9 11.68 1.29 11.29L7.29 5.29C7.68 4.9 8.31 4.9 8.7 5.29ZM15.29 5.29C15.68 4.9 16.31 4.9 16.7 5.29L22.7 11.29C23.09 11.68 23.09 12.31 22.7 12.7L16.7 18.7C16.31 19.09 15.68 19.09 15.29 18.7C14.9 18.31 14.9 17.68 15.29 17.29L20.58 12L15.29 6.7C14.9 6.31 14.9 5.68 15.29 5.29Z" fill="#FFFFFF" fill-opacity="1.000000" fill-rule="evenodd"/>
	</g>
</svg>
