<svg width="24.000000" height="24.000000" viewBox="0 0 24 24" fill="none" xmlns="http://www.w3.org/2000/svg" xmlns:xlink="http://www.w3.org/1999/xlink">
	<desc>
			Created with Pixso.
	</desc>
	<defs>
		<clipPath id="clip3_1765">
			<rect id="icon-arrow-up" rx="0.000000" width="23.000000" height="23.000000" transform="translate(0.500000 0.500000)" fill="white" fill-opacity="0"/>
		</clipPath>
	</defs>
	<rect id="icon-arrow-up" rx="0.000000" width="23.000000" height="23.000000" transform="translate(0.500000 0.500000)" fill="#FFFFFF" fill-opacity="0"/>
	<g clip-path="url(#clip3_1765)">
		<path id="Shape" d="M12.7 4.29C12.31 3.9 11.68 3.9 11.29 4.29L4.29 11.29C3.9 11.68 3.9 12.31 4.29 12.7C4.68 13.09 5.31 13.09 5.7 12.7L11 7.41L11 19C11 19.55 11.44 20 12 20C12.55 20 13 19.55 13 19L13 7.41L18.29 12.7C18.68 13.09 19.31 13.09 19.7 12.7C20.09 12.31 20.09 11.68 19.7 11.29L12.7 4.29Z" fill="#2D3648" fill-opacity="1.000000" fill-rule="nonzero"/>
	</g>
</svg>
