<svg width="144.000000" height="144.000000" viewBox="0 0 144 144" fill="none" xmlns="http://www.w3.org/2000/svg" xmlns:xlink="http://www.w3.org/1999/xlink">
	<desc>
			Created with Pixso.
	</desc>
	<defs>
		<clipPath id="clip13_414">
			<rect id="css3-alt" rx="0.000000" width="63.000000" height="63.000000" transform="translate(40.500000 40.500000)" fill="white" fill-opacity="0"/>
		</clipPath>
		<clipPath id="clip13_413">
			<rect id="Icon" rx="71.500000" width="143.000000" height="143.000000" transform="translate(0.500000 0.500000)" fill="white" fill-opacity="0"/>
		</clipPath>
	</defs>
	<rect id="Icon" rx="71.500000" width="143.000000" height="143.000000" transform="translate(0.500000 0.500000)" fill="#0C73B8" fill-opacity="1.000000"/>
	<g clip-path="url(#clip13_413)">
		<rect id="css3-alt" rx="0.000000" width="63.000000" height="63.000000" transform="translate(40.500000 40.500000)" fill="#FFFFFF" fill-opacity="0"/>
		<g clip-path="url(#clip13_414)">
			<path id="Vector" d="M52 48L56 90L72 96L88 90L92 48L52 48ZM58.66 54L85.3 54L84.78 60L73.39 66L78.24 66L84 66L84.24 66L83.22 78.01L83.26 78L82.71 84L72 88L61.26 84L60.6 76L66.65 76L66.96 80.06L72 81.8L77.04 80.1L77.73 72L60.26 72L59.74 66L71.56 60L59.21 60L58.66 54Z" fill="#FFFFFF" fill-opacity="1.000000" fill-rule="nonzero"/>
		</g>
	</g>
</svg>
