<svg width="152.000000" height="152.000000" viewBox="0 0 152 152" fill="none" xmlns="http://www.w3.org/2000/svg" xmlns:xlink="http://www.w3.org/1999/xlink">
	<desc>
			Created with Pixso.
	</desc>
	<defs>
		<filter id="filter_13_425_dd" x="0.000000" y="0.000000" width="152.000000" height="152.000000" filterUnits="userSpaceOnUse" color-interpolation-filters="sRGB">
			<feFlood flood-opacity="0" result="BackgroundImageFix"/>
			<feColorMatrix in="SourceAlpha" type="matrix" values="0 0 0 0 0 0 0 0 0 0 0 0 0 0 0 0 0 0 127 0" result="hardAlpha"/>
			<feOffset dx="0" dy="4"/>
			<feGaussianBlur stdDeviation="1.33333"/>
			<feComposite in2="hardAlpha" operator="out" k2="-1" k3="1"/>
			<feColorMatrix type="matrix" values="0 0 0 0 0 0 0 0 0 0 0 0 0 0 0 0 0 0 0.25 0"/>
			<feBlend mode="normal" in2="BackgroundImageFix" result="effect_dropShadow_1"/>
			<feBlend mode="normal" in="SourceGraphic" in2="effect_dropShadow_1" result="shape"/>
		</filter>
		<clipPath id="clip13_426">
			<rect id="react" rx="0.000000" width="63.000000" height="63.000000" transform="translate(44.500000 40.500000)" fill="white" fill-opacity="0"/>
		</clipPath>
		<clipPath id="clip13_425">
			<rect id="Icon" rx="71.500000" width="143.000000" height="143.000000" transform="translate(4.500000 0.500000)" fill="white" fill-opacity="0"/>
		</clipPath>
	</defs>
	<g filter="url(#filter_13_425_dd)">
		<rect id="Icon" rx="71.500000" width="143.000000" height="143.000000" transform="translate(4.500000 0.500000)" fill="#28A9E0" fill-opacity="1.000000"/>
		<g clip-path="url(#clip13_425)">
			<rect id="react" rx="0.000000" width="63.000000" height="63.000000" transform="translate(44.500000 40.500000)" fill="#FFFFFF" fill-opacity="0"/>
			<g clip-path="url(#clip13_426)">
				<path id="Vector" d="M66.8 46.71C65.11 46.6 63.45 46.9 62 47.75C60.05 48.87 58.76 50.78 58.07 52.98C57.37 55.19 57.21 57.73 57.46 60.5C57.49 60.78 57.54 61.07 57.57 61.36C57.31 61.47 57.03 61.58 56.77 61.69C54.24 62.86 52.13 64.27 50.57 65.97C49 67.67 48 69.75 48 72C48 74.24 49 76.32 50.57 78.02C52.13 79.72 54.24 81.13 56.77 82.3C57.03 82.41 57.31 82.52 57.57 82.63C57.54 82.92 57.49 83.21 57.46 83.49C57.21 86.26 57.37 88.8 58.07 91.01C58.76 93.21 60.05 95.12 62 96.25C63.94 97.37 66.24 97.53 68.5 97.03C70.75 96.53 73.03 95.4 75.3 93.79C75.53 93.63 75.76 93.44 76 93.27C76.23 93.44 76.46 93.63 76.69 93.79C78.96 95.4 81.24 96.53 83.5 97.03C85.75 97.53 88.05 97.37 90 96.25C91.94 95.12 93.23 93.21 93.92 91.01C94.62 88.8 94.78 86.26 94.53 83.49C94.5 83.21 94.45 82.92 94.42 82.63C94.68 82.52 94.96 82.41 95.22 82.3C97.75 81.13 99.86 79.72 101.43 78.02C102.99 76.32 104 74.24 104 72C104 69.75 102.99 67.67 101.43 65.97C99.86 64.27 97.75 62.86 95.22 61.69C94.96 61.58 94.68 61.47 94.42 61.36C94.45 61.07 94.5 60.78 94.53 60.5C94.78 57.73 94.62 55.19 93.92 52.98C93.23 50.78 91.94 48.87 90 47.75C88.05 46.62 85.75 46.46 83.5 46.96C81.24 47.46 78.96 48.59 76.69 50.2C76.46 50.36 76.23 50.55 76 50.72C75.76 50.55 75.53 50.36 75.3 50.2C73.03 48.59 70.75 47.46 68.5 46.96C67.93 46.83 67.37 46.75 66.8 46.71ZM66.54 50.7C66.88 50.72 67.25 50.78 67.63 50.87C69.14 51.2 70.95 52.05 72.86 53.38C71.27 54.89 69.71 56.6 68.21 58.52C65.81 58.86 63.54 59.35 61.44 59.97C61.24 57.65 61.41 55.66 61.88 54.19C62.35 52.68 63.07 51.75 64 51.21C64.69 50.81 65.52 50.62 66.54 50.7ZM85.45 50.7C86.47 50.62 87.3 50.81 88 51.21C88.92 51.75 89.64 52.68 90.11 54.19C90.58 55.66 90.75 57.65 90.55 59.97C88.45 59.35 86.18 58.86 83.78 58.52C82.28 56.6 80.72 54.89 79.13 53.38C81.04 52.05 82.85 51.2 84.36 50.87C84.75 50.78 85.11 50.72 85.45 50.7ZM76 55.91C76.7 56.56 77.4 57.29 78.1 58.04C77.4 58.02 76.71 58 76 58C75.28 58 74.59 58.02 73.89 58.04C74.59 57.29 75.29 56.56 76 55.91ZM76 62C77.92 62 79.79 62.11 81.59 62.3C82.66 63.76 83.69 65.32 84.66 67C85.62 68.67 86.46 70.34 87.19 72C86.46 73.65 85.62 75.32 84.66 77C83.69 78.67 82.66 80.23 81.59 81.69C79.79 81.88 77.92 82 76 82C74.07 82 72.2 81.88 70.4 81.69C69.33 80.23 68.3 78.67 67.33 77C66.37 75.32 65.53 73.65 64.8 72C65.53 70.34 66.37 68.67 67.33 67C68.3 65.32 69.33 63.76 70.4 62.3C72.2 62.11 74.07 62 76 62ZM64.96 63.19C64.59 63.79 64.23 64.38 63.87 65C63.51 65.61 63.19 66.23 62.86 66.84C62.55 65.86 62.28 64.89 62.07 63.96C62.98 63.67 63.96 63.42 64.96 63.19ZM87.03 63.19C88.03 63.42 89.01 63.67 89.92 63.96C89.71 64.89 89.44 65.86 89.13 66.84C88.8 66.23 88.48 65.61 88.12 65C87.76 64.38 87.4 63.79 87.03 63.19ZM58.3 65.4C58.81 67.53 59.52 69.74 60.44 72C59.52 74.25 58.81 76.46 58.3 78.59C56.2 77.6 54.56 76.46 53.51 75.32C52.44 74.15 52 73.07 52 72C52 70.92 52.44 69.84 53.51 68.67C54.56 67.53 56.2 66.39 58.3 65.4ZM93.69 65.4C95.79 66.39 97.43 67.53 98.48 68.67C99.55 69.84 100 70.92 100 72C100 73.07 99.55 74.15 98.48 75.32C97.43 76.46 95.79 77.6 93.69 78.59C93.18 76.46 92.47 74.25 91.55 72C92.47 69.74 93.18 67.53 93.69 65.4ZM76 66C72.71 66 70 68.71 70 72C70 75.29 72.71 78 76 78C79.29 78 82 75.29 82 72C82 68.71 79.29 66 76 66ZM76 70C77.12 70 78 70.87 78 72C78 73.12 77.12 74 76 74C74.87 74 74 73.12 74 72C74 70.87 74.87 70 76 70ZM62.86 77.15C63.19 77.76 63.51 78.38 63.87 79C64.23 79.61 64.59 80.2 64.96 80.8C63.96 80.57 62.98 80.32 62.07 80.03C62.28 79.1 62.55 78.13 62.86 77.15ZM89.13 77.15C89.44 78.13 89.71 79.1 89.92 80.03C89.01 80.32 88.03 80.57 87.03 80.8C87.4 80.2 87.76 79.61 88.12 79C88.48 78.38 88.8 77.76 89.13 77.15ZM61.44 84.02C63.54 84.64 65.81 85.13 68.21 85.47C69.71 87.39 71.27 89.1 72.86 90.61C70.95 91.94 69.14 92.79 67.63 93.12C66.08 93.47 64.92 93.32 64 92.78C63.07 92.24 62.35 91.31 61.88 89.8C61.41 88.33 61.24 86.33 61.44 84.02ZM90.55 84.02C90.75 86.33 90.58 88.33 90.11 89.8C89.64 91.31 88.92 92.24 88 92.78C87.07 93.32 85.91 93.47 84.36 93.12C82.85 92.79 81.04 91.94 79.13 90.61C80.72 89.1 82.28 87.39 83.78 85.47C86.18 85.13 88.45 84.64 90.55 84.02ZM73.89 85.95C74.59 85.97 75.28 86 76 86C76.71 86 77.4 85.97 78.1 85.95C77.4 86.7 76.7 87.43 76 88.08C75.29 87.43 74.59 86.7 73.89 85.95Z" fill="#FFFFFF" fill-opacity="1.000000" fill-rule="nonzero"/>
			</g>
		</g>
	</g>
</svg>
