<svg width="144.000000" height="144.000000" viewBox="0 0 144 144" fill="none" xmlns="http://www.w3.org/2000/svg" xmlns:xlink="http://www.w3.org/1999/xlink">
	<desc>
			Created with Pixso.
	</desc>
	<defs>
		<clipPath id="clip13_420">
			<rect id="node-js" rx="0.000000" width="63.000000" height="63.000000" transform="translate(40.500000 40.500000)" fill="white" fill-opacity="0"/>
		</clipPath>
		<clipPath id="clip13_419">
			<rect id="Icon" rx="71.500000" width="143.000000" height="143.000000" transform="translate(0.500000 0.500000)" fill="white" fill-opacity="0"/>
		</clipPath>
	</defs>
	<rect id="Icon" rx="71.500000" width="143.000000" height="143.000000" transform="translate(0.500000 0.500000)" fill="#E7A020" fill-opacity="1.000000"/>
	<g clip-path="url(#clip13_419)">
		<rect id="node-js" rx="0.000000" width="63.000000" height="63.000000" transform="translate(40.500000 40.500000)" fill="#FFFFFF" fill-opacity="0"/>
		<g clip-path="url(#clip13_420)">
			<path id="Vector" d="M71.98 46C71.25 46 70.52 46.17 69.89 46.53L50.07 57.98C48.79 58.72 48 60.12 48 61.6L48 82.35C48 83.85 48.79 85.24 50.07 85.98L55.28 88.98C57.8 90.22 58.69 90.21 59.83 90.21C63.57 90.21 65.71 87.95 65.71 84.03L65.71 62.62C65.71 62.3 65.46 62.03 65.14 62.03L62.64 62.03C62.3 62.03 62.05 62.3 62.05 62.62L62.05 84.01C62.05 85.77 60.24 87.49 57.3 86.03L51.85 82.89C51.65 82.79 51.53 82.57 51.53 82.35L51.53 61.62C51.53 61.38 51.65 61.17 51.85 61.05L71.67 49.62C71.85 49.5 72.1 49.5 72.3 49.62L92.12 61.05C92.32 61.17 92.44 61.38 92.44 61.6L92.44 82.35C92.44 82.57 92.32 82.79 92.14 82.89L72.3 94.35C72.12 94.45 71.85 94.45 71.67 94.35L66.57 91.33C66.43 91.23 66.24 91.22 66.1 91.3C64.68 92.1 64.42 92.2 63.1 92.66C62.78 92.76 62.28 92.95 63.28 93.51L69.89 97.44C70.53 97.8 71.26 98 71.98 98C72.72 98 73.43 97.8 74.07 97.44L93.92 85.98C95.2 85.24 96 83.85 96 82.35L96 61.62C96 60.12 95.2 58.74 93.92 58L74.07 46.53C73.44 46.17 72.71 46 71.98 46ZM77.32 62.01C71.66 62.01 68.28 64.41 68.28 68.41C68.28 72.75 71.63 73.94 77.07 74.48C83.57 75.12 84.07 76.09 84.07 77.37C84.07 79.57 82.3 80.51 78.12 80.51C72.86 80.51 71.7 79.18 71.32 76.58C71.28 76.3 71.04 76.1 70.76 76.1L68.17 76.1C67.85 76.1 67.62 76.37 67.62 76.67C67.62 80.01 69.44 83.98 78.12 83.98C84.4 83.98 88 81.51 88 77.19C88 72.91 85.09 71.76 79.01 70.94C72.83 70.14 72.21 69.72 72.21 68.28C72.21 67.08 72.76 65.51 77.32 65.51C81.38 65.51 82.89 66.38 83.51 69.12C83.57 69.38 83.79 69.58 84.07 69.58L86.66 69.58C86.82 69.58 86.95 69.51 87.07 69.39C87.17 69.29 87.23 69.12 87.21 68.94C86.81 64.22 83.68 62.01 77.32 62.01Z" fill="#FFFFFF" fill-opacity="1.000000" fill-rule="nonzero"/>
		</g>
	</g>
</svg>
