<svg width="32.000000" height="32.000000" viewBox="0 0 32 32" fill="none" xmlns="http://www.w3.org/2000/svg" xmlns:xlink="http://www.w3.org/1999/xlink">
	<desc>
			Created with Pixso.
	</desc>
	<defs>
		<filter id="filter_8_339_dd" x="0.000000" y="0.000000" width="32.000000" height="32.000000" filterUnits="userSpaceOnUse" color-interpolation-filters="sRGB">
			<feFlood flood-opacity="0" result="BackgroundImageFix"/>
			<feColorMatrix in="SourceAlpha" type="matrix" values="0 0 0 0 0 0 0 0 0 0 0 0 0 0 0 0 0 0 127 0" result="hardAlpha"/>
			<feOffset dx="0" dy="4"/>
			<feGaussianBlur stdDeviation="1.33333"/>
			<feComposite in2="hardAlpha" operator="out" k2="-1" k3="1"/>
			<feColorMatrix type="matrix" values="0 0 0 0 0 0 0 0 0 0 0 0 0 0 0 0 0 0 0.25 0"/>
			<feBlend mode="normal" in2="BackgroundImageFix" result="effect_dropShadow_1"/>
			<feBlend mode="normal" in="SourceGraphic" in2="effect_dropShadow_1" result="shape"/>
		</filter>
		<clipPath id="clip2_2207">
			<rect id="icon-user" rx="0.000000" width="23.000000" height="23.000000" transform="translate(4.500000 0.500000)" fill="white" fill-opacity="0"/>
		</clipPath>
	</defs>
	<g filter="url(#filter_8_339_dd)">
		<rect id="icon-user" rx="0.000000" width="23.000000" height="23.000000" transform="translate(4.500000 0.500000)" fill="#FFFFFF" fill-opacity="0"/>
		<g clip-path="url(#clip2_2207)">
			<path id="Shape" d="M11 7C11 4.23 13.23 2 16 2C18.76 2 21 4.23 21 7C21 9.76 18.76 12 16 12C13.23 12 11 9.76 11 7ZM16 4C14.34 4 13 5.34 13 7C13 8.65 14.34 10 16 10C17.65 10 19 8.65 19 7C19 5.34 17.65 4 16 4ZM8.46 15.46C9.4 14.52 10.67 14 12 14L20 14C21.32 14 22.59 14.52 23.53 15.46C24.47 16.4 25 17.67 25 19L25 21C25 21.55 24.55 22 24 22C23.44 22 23 21.55 23 21L23 19C23 18.2 22.68 17.44 22.12 16.87C21.55 16.31 20.79 16 20 16L12 16C11.2 16 10.44 16.31 9.87 16.87C9.31 17.44 9 18.2 9 19L9 21C9 21.55 8.55 22 8 22C7.44 22 7 21.55 7 21L7 19C7 17.67 7.52 16.4 8.46 15.46Z" fill="#FFFFFF" fill-opacity="1.000000" fill-rule="evenodd"/>
		</g>
	</g>
</svg>
