<svg width="20.810425" height="47.451996" viewBox="0 0 20.8104 47.452" fill="none" xmlns="http://www.w3.org/2000/svg" xmlns:xlink="http://www.w3.org/1999/xlink">
	<desc>
			Created with Pixso.
	</desc>
	<defs/>
	<path id="Vector" d="M13.07 36.08L7.55 36.08C7.49 36.08 7.43 36.12 7.41 36.18L2.22 47.25C2.18 47.35 2.25 47.45 2.35 47.45L18.25 47.45C18.35 47.45 18.42 47.34 18.39 47.24L13.2 36.17C13.18 36.12 13.12 36.08 13.07 36.08Z" fill="#7CFC00" fill-opacity="1.000000" fill-rule="nonzero"/>
	<path id="Vector" d="M2.29 44.29L6.79 34.76C6.8 34.73 6.81 34.7 6.8 34.67L0.28 20.77C0.24 20.6 0 20.62 0 20.8L2.01 44.24C2 44.39 2.23 44.44 2.29 44.29Z" fill="#7CFC00" fill-opacity="1.000000" fill-rule="nonzero"/>
	<path id="Vector" d="M18.6 44.24L20.62 20.8C20.62 20.63 20.38 20.6 20.33 20.77L13.82 34.67C13.81 34.7 13.81 34.73 13.82 34.76L18.33 44.29C18.39 44.44 18.61 44.39 18.6 44.24Z" fill="#7CFC00" fill-opacity="1.000000" fill-rule="nonzero"/>
	<path id="Эллипс 1" d="M10.81 0C5.28 0 0.81 4.47 0.81 10C0.81 15.52 5.28 20 10.81 20C16.33 20 20.81 15.52 20.81 10C20.81 4.47 16.33 0 10.81 0Z" fill="#C4C4C4" fill-opacity="1.000000" fill-rule="evenodd"/>
</svg>
