<svg width="64.000000" height="64.000000" viewBox="0 0 64 64" fill="none" xmlns="http://www.w3.org/2000/svg" xmlns:xlink="http://www.w3.org/1999/xlink">
	<desc>
			Created with Pixso.
	</desc>
	<defs>
		<clipPath id="clip49_7852">
			<rect id="node-js" rx="0.000000" width="63.000000" height="63.000000" transform="translate(0.500000 0.500000)" fill="white" fill-opacity="0"/>
		</clipPath>
	</defs>
	<rect id="node-js" rx="0.000000" width="63.000000" height="63.000000" transform="translate(0.500000 0.500000)" fill="#FFFFFF" fill-opacity="0"/>
	<g clip-path="url(#clip49_7852)">
		<path id="Vector" d="M31.98 6C31.25 6 30.52 6.17 29.89 6.53L10.07 17.98C8.79 18.72 8 20.12 8 21.6L8 42.35C8 43.85 8.79 45.24 10.07 45.98L15.28 48.98C17.8 50.22 18.7 50.21 19.83 50.21C23.57 50.21 25.71 47.95 25.71 44.03L25.71 22.62C25.71 22.3 25.46 22.03 25.14 22.03L22.64 22.03C22.3 22.03 22.05 22.3 22.05 22.62L22.05 44.01C22.05 45.77 20.24 47.49 17.3 46.03L11.85 42.89C11.65 42.79 11.53 42.57 11.53 42.35L11.53 21.62C11.53 21.38 11.65 21.17 11.85 21.05L31.67 9.62C31.85 9.5 32.1 9.5 32.3 9.62L52.12 21.05C52.32 21.17 52.44 21.38 52.44 21.6L52.44 42.35C52.44 42.57 52.32 42.79 52.14 42.89L32.3 54.35C32.12 54.45 31.85 54.45 31.67 54.35L26.57 51.33C26.43 51.23 26.24 51.22 26.1 51.3C24.68 52.1 24.42 52.2 23.1 52.66C22.78 52.76 22.28 52.95 23.28 53.51L29.89 57.44C30.53 57.8 31.26 58 31.98 58C32.72 58 33.43 57.8 34.07 57.44L53.92 45.98C55.2 45.24 56 43.85 56 42.35L56 21.62C56 20.12 55.2 18.74 53.92 18L34.07 6.53C33.44 6.17 32.71 6 31.98 6ZM37.32 22.01C31.66 22.01 28.28 24.41 28.28 28.41C28.28 32.75 31.63 33.94 37.07 34.48C43.57 35.12 44.07 36.09 44.07 37.37C44.07 39.57 42.3 40.51 38.12 40.51C32.86 40.51 31.7 39.18 31.32 36.58C31.28 36.3 31.04 36.1 30.76 36.1L28.17 36.1C27.85 36.1 27.62 36.37 27.62 36.67C27.62 40.01 29.44 43.98 38.12 43.98C44.4 43.98 48 41.51 48 37.19C48 32.91 45.09 31.76 39.01 30.94C32.83 30.14 32.21 29.72 32.21 28.28C32.21 27.08 32.76 25.51 37.32 25.51C41.38 25.51 42.89 26.38 43.51 29.12C43.57 29.38 43.79 29.58 44.07 29.58L46.66 29.58C46.82 29.58 46.95 29.51 47.07 29.39C47.17 29.29 47.23 29.12 47.21 28.94C46.81 24.22 43.68 22.01 37.32 22.01Z" fill="#000000" fill-opacity="1.000000" fill-rule="nonzero"/>
	</g>
</svg>
