<svg width="64.000000" height="64.000000" viewBox="0 0 64 64" fill="none" xmlns="http://www.w3.org/2000/svg" xmlns:xlink="http://www.w3.org/1999/xlink">
	<desc>
			Created with Pixso.
	</desc>
	<defs>
		<clipPath id="clip49_7857">
			<rect id="react" rx="0.000000" width="63.000000" height="63.000000" transform="translate(0.500000 0.500000)" fill="white" fill-opacity="0"/>
		</clipPath>
	</defs>
	<rect id="react" rx="0.000000" width="63.000000" height="63.000000" transform="translate(0.500000 0.500000)" fill="#FFFFFF" fill-opacity="0"/>
	<g clip-path="url(#clip49_7857)">
		<path id="Vector" d="M22.8 6.71C21.11 6.6 19.45 6.9 18 7.75C16.05 8.87 14.76 10.78 14.07 12.98C13.37 15.19 13.21 17.73 13.46 20.5C13.49 20.78 13.54 21.07 13.57 21.36C13.31 21.47 13.03 21.58 12.77 21.69C10.24 22.86 8.13 24.27 6.57 25.97C5 27.67 4 29.75 4 32C4 34.24 5 36.32 6.57 38.02C8.13 39.72 10.24 41.13 12.77 42.3C13.03 42.41 13.31 42.52 13.57 42.63C13.54 42.92 13.49 43.21 13.46 43.49C13.21 46.26 13.37 48.8 14.07 51.01C14.76 53.21 16.05 55.12 18 56.25C19.94 57.37 22.24 57.53 24.5 57.03C26.75 56.53 29.03 55.4 31.3 53.79C31.53 53.63 31.76 53.44 32 53.27C32.23 53.44 32.46 53.63 32.69 53.79C34.96 55.4 37.24 56.53 39.5 57.03C41.75 57.53 44.05 57.37 46 56.25C47.94 55.12 49.23 53.21 49.92 51.01C50.62 48.8 50.78 46.26 50.53 43.49C50.5 43.21 50.45 42.92 50.42 42.63C50.68 42.52 50.96 42.41 51.22 42.3C53.75 41.13 55.86 39.72 57.42 38.02C58.99 36.32 60 34.24 60 32C60 29.75 58.99 27.67 57.42 25.97C55.86 24.27 53.75 22.86 51.22 21.69C50.96 21.58 50.68 21.47 50.42 21.36C50.45 21.07 50.5 20.78 50.53 20.5C50.78 17.73 50.62 15.19 49.92 12.98C49.23 10.78 47.94 8.87 46 7.75C44.05 6.62 41.75 6.46 39.5 6.96C37.24 7.46 34.96 8.59 32.69 10.2C32.46 10.36 32.23 10.55 32 10.72C31.76 10.55 31.53 10.36 31.3 10.2C29.03 8.59 26.75 7.46 24.5 6.96C23.93 6.83 23.37 6.75 22.8 6.71ZM22.54 10.7C22.88 10.72 23.25 10.78 23.63 10.87C25.14 11.2 26.95 12.05 28.86 13.38C27.27 14.89 25.71 16.6 24.21 18.52C21.81 18.86 19.54 19.35 17.44 19.97C17.24 17.65 17.41 15.66 17.88 14.19C18.35 12.68 19.07 11.75 20 11.21C20.69 10.81 21.52 10.62 22.54 10.7ZM41.45 10.7C42.47 10.62 43.3 10.81 44 11.21C44.92 11.75 45.64 12.68 46.11 14.19C46.58 15.66 46.75 17.65 46.55 19.97C44.45 19.35 42.18 18.86 39.78 18.52C38.28 16.6 36.72 14.89 35.13 13.38C37.04 12.05 38.85 11.2 40.36 10.87C40.75 10.78 41.11 10.72 41.45 10.7ZM32 15.91C32.7 16.56 33.4 17.29 34.1 18.04C33.4 18.02 32.71 18 32 18C31.28 18 30.59 18.02 29.89 18.04C30.59 17.29 31.29 16.56 32 15.91ZM32 22C33.92 22 35.79 22.11 37.59 22.3C38.66 23.76 39.69 25.32 40.66 27C41.62 28.67 42.46 30.34 43.19 32C42.46 33.65 41.62 35.32 40.66 37C39.69 38.67 38.66 40.23 37.59 41.69C35.79 41.88 33.92 42 32 42C30.07 42 28.2 41.88 26.4 41.69C25.33 40.23 24.3 38.67 23.33 37C22.37 35.32 21.53 33.65 20.8 32C21.53 30.34 22.37 28.67 23.33 27C24.3 25.32 25.33 23.76 26.4 22.3C28.2 22.11 30.07 22 32 22ZM20.96 23.19C20.59 23.79 20.23 24.38 19.87 25C19.51 25.61 19.19 26.23 18.86 26.84C18.55 25.86 18.28 24.89 18.07 23.96C18.98 23.67 19.96 23.42 20.96 23.19ZM43.03 23.19C44.03 23.42 45.01 23.67 45.92 23.96C45.71 24.89 45.44 25.86 45.13 26.84C44.8 26.23 44.48 25.61 44.12 25C43.76 24.38 43.4 23.79 43.03 23.19ZM14.3 25.4C14.81 27.53 15.52 29.74 16.44 32C15.52 34.25 14.81 36.46 14.3 38.59C12.2 37.6 10.56 36.46 9.51 35.32C8.44 34.15 8 33.07 8 32C8 30.92 8.44 29.84 9.51 28.67C10.56 27.53 12.2 26.39 14.3 25.4ZM49.69 25.4C51.79 26.39 53.43 27.53 54.48 28.67C55.55 29.84 56 30.92 56 32C56 33.07 55.55 34.15 54.48 35.32C53.43 36.46 51.79 37.6 49.69 38.59C49.18 36.46 48.47 34.25 47.55 32C48.47 29.74 49.18 27.53 49.69 25.4ZM32 26C28.71 26 26 28.71 26 32C26 35.29 28.71 38 32 38C35.29 38 38 35.29 38 32C38 28.71 35.29 26 32 26ZM32 30C33.12 30 34 30.87 34 32C34 33.12 33.12 34 32 34C30.87 34 30 33.12 30 32C30 30.87 30.87 30 32 30ZM18.86 37.15C19.19 37.76 19.51 38.38 19.87 39C20.23 39.61 20.59 40.2 20.96 40.8C19.96 40.57 18.98 40.32 18.07 40.03C18.28 39.1 18.55 38.13 18.86 37.15ZM45.13 37.15C45.44 38.13 45.71 39.1 45.92 40.03C45.01 40.32 44.03 40.57 43.03 40.8C43.4 40.2 43.76 39.61 44.12 39C44.48 38.38 44.8 37.76 45.13 37.15ZM17.44 44.02C19.54 44.64 21.81 45.13 24.21 45.47C25.71 47.39 27.27 49.1 28.86 50.61C26.95 51.94 25.14 52.79 23.63 53.12C22.08 53.47 20.92 53.32 20 52.78C19.07 52.24 18.35 51.31 17.88 49.8C17.41 48.33 17.24 46.33 17.44 44.02ZM46.55 44.02C46.75 46.33 46.58 48.33 46.11 49.8C45.64 51.31 44.92 52.24 44 52.78C43.07 53.32 41.91 53.47 40.36 53.12C38.85 52.79 37.04 51.94 35.13 50.61C36.72 49.1 38.28 47.39 39.78 45.47C42.18 45.13 44.45 44.64 46.55 44.02ZM29.89 45.95C30.59 45.97 31.28 46 32 46C32.71 46 33.4 45.97 34.1 45.95C33.4 46.7 32.7 47.43 32 48.08C31.29 47.43 30.59 46.7 29.89 45.95Z" fill="#000000" fill-opacity="1.000000" fill-rule="nonzero"/>
	</g>
</svg>
