<svg width="40.000000" height="40.000000" viewBox="0 0 40 40" fill="none" xmlns="http://www.w3.org/2000/svg" xmlns:xlink="http://www.w3.org/1999/xlink">
	<desc>
			Created with Pixso.
	</desc>
	<defs>
		<clipPath id="clip2_1961">
			<rect id="icon-code" rx="0.000000" width="23.000000" height="23.000000" transform="translate(8.500000 8.500000)" fill="white" fill-opacity="0"/>
		</clipPath>
	</defs>
	<rect id="icon-code" rx="0.000000" width="23.000000" height="23.000000" transform="translate(8.500000 8.500000)" fill="#FFFFFF" fill-opacity="0"/>
	<g clip-path="url(#clip2_1961)">
		<path id="Shape" d="M16.7 13.29C17.09 13.68 17.09 14.31 16.7 14.7L11.41 20L16.7 25.29C17.09 25.68 17.09 26.31 16.7 26.7C16.31 27.09 15.68 27.09 15.29 26.7L9.29 20.7C8.9 20.31 8.9 19.68 9.29 19.29L15.29 13.29C15.68 12.9 16.31 12.9 16.7 13.29ZM23.29 13.29C23.68 12.9 24.31 12.9 24.7 13.29L30.7 19.29C31.09 19.68 31.09 20.31 30.7 20.7L24.7 26.7C24.31 27.09 23.68 27.09 23.29 26.7C22.9 26.31 22.9 25.68 23.29 25.29L28.58 20L23.29 14.7C22.9 14.31 22.9 13.68 23.29 13.29Z" fill="#FFFFFF" fill-opacity="1.000000" fill-rule="evenodd"/>
	</g>
</svg>
