<!-- icon666.com - MILLIONS vector ICONS FREE --><svg id="Layer_5" enable-background="new 0 0 62 62" viewBox="0 0 62 62" xmlns="http://www.w3.org/2000/svg"><g><path d="m28 31c0-7.72-6.28-14-14-14s-14 6.28-14 14 6.28 14 14 14 14-6.28 14-14zm-26 0c0-6.617 5.383-12 12-12s12 5.383 12 12-5.383 12-12 12-12-5.383-12-12z"></path><path d="m24 31c0-5.514-4.486-10-10-10s-10 4.486-10 10 4.486 10 10 10 10-4.486 10-10zm-18 0c0-4.411 3.589-8 8-8s8 3.589 8 8-3.589 8-8 8-8-3.589-8-8z"></path><path d="m18 31c0-2.206-1.794-4-4-4s-4 1.794-4 4 1.794 4 4 4 4-1.794 4-4zm-6 0c0-1.103.897-2 2-2s2 .897 2 2-.897 2-2 2-2-.897-2-2z"></path><path d="m59 48h-20c-1.654 0-3 1.346-3 3v8c0 1.654 1.346 3 3 3h20c1.654 0 3-1.346 3-3v-8c0-1.654-1.346-3-3-3zm1 11c0 .552-.449 1-1 1h-20c-.551 0-1-.448-1-1v-8c0-.552.449-1 1-1h20c.551 0 1 .448 1 1z"></path><path d="m59 32h-20c-1.654 0-3 1.346-3 3v8c0 1.654 1.346 3 3 3h20c1.654 0 3-1.346 3-3v-8c0-1.654-1.346-3-3-3zm1 11c0 .552-.449 1-1 1h-20c-.551 0-1-.448-1-1v-8c0-.552.449-1 1-1h20c.551 0 1 .448 1 1z"></path><path d="m59 16h-20c-1.654 0-3 1.346-3 3v8c0 1.654 1.346 3 3 3h20c1.654 0 3-1.346 3-3v-8c0-1.654-1.346-3-3-3zm1 11c0 .552-.449 1-1 1h-20c-.551 0-1-.448-1-1v-8c0-.552.449-1 1-1h20c.551 0 1 .448 1 1z"></path><path d="m59 0h-20c-1.654 0-3 1.346-3 3v8c0 1.654 1.346 3 3 3h20c1.654 0 3-1.346 3-3v-8c0-1.654-1.346-3-3-3zm1 11c0 .552-.449 1-1 1h-20c-.551 0-1-.448-1-1v-8c0-.552.449-1 1-1h20c.551 0 1 .448 1 1z"></path><path d="m47 23.586-1.293-1.293-1.414 1.414 2.707 2.707 5.707-5.707-1.414-1.414z"></path><path d="m47 7.586-1.293-1.293-1.414 1.414 2.707 2.707 5.707-5.707-1.414-1.414z"></path><path d="m47 55.586-1.293-1.293-1.414 1.414 2.707 2.707 5.707-5.707-1.414-1.414z"></path><path d="m56 38h2v2h-2z"></path><path d="m52 38h2v2h-2z"></path><path d="m48 38h2v2h-2z"></path><path d="m44 38h2v2h-2z"></path><path d="m40 38h2v2h-2z"></path><path d="m15 53v-6h-2v6c0 1.654 1.346 3 3 3h18v-2h-18c-.551 0-1-.448-1-1z"></path><path d="m28 38h6v2h-6z"></path><path d="m13 9v6h2v-6c0-.552.449-1 1-1h18v-2h-18c-1.654 0-3 1.346-3 3z"></path><path d="m28 22h6v2h-6z"></path></g></svg>